<?xml version="1.0" encoding="UTF-8"?>
<svg width="20px" height="16px" viewBox="0 0 20 16" version="1.1" xmlns="http://www.w3.org/2000/svg" xmlns:xlink="http://www.w3.org/1999/xlink">
    <!-- Generator: Sketch 44.1 (41455) - http://www.bohemiancoding.com/sketch -->
    <title>fa-eye-slash</title>
    <desc>Created with Sketch.</desc>
    <defs></defs>
    <g id="Page-1" stroke="none" stroke-width="1" fill="none" fill-rule="evenodd">
        <g id="0-signin-active" transform="translate(-448.000000, -384.000000)" fill="#BEBEBE">
            <g id="Group" transform="translate(110.000000, 41.000000)">
                <g id="pwd-shown" transform="translate(23.000000, 343.000000)">
                    <g id="fa-eye-slash" transform="translate(315.300000, 0.500000)">
                        <path d="M0.444347826,8.48086957 C1.08869565,9.47652174 1.85043478,10.3547826 2.70869565,11.1347826 C3.58695652,11.9356522 4.54347826,12.56 5.57826087,13.0286957 C5.26608696,13.5747826 5.10956522,13.8869565 5.10956522,13.9852174 C5.10956522,14.1217391 5.16782609,14.2191304 5.28521739,14.2973913 C6.16347826,14.8043478 6.65130435,15.0582609 6.74869565,15.0582609 C6.86608696,15.0582609 6.98347826,15 7.04173913,14.8826087 L7.58869565,13.9069565 C8.34956522,12.5208696 9.50086957,10.4713043 11.0234783,7.71913043 C12.546087,4.96782609 13.6782609,2.91826087 14.4391304,1.57130435 C14.4582609,1.55217391 14.4582609,1.51304348 14.4582609,1.47391304 C14.4582609,1.3373913 14.4,1.24 14.2826087,1.18086957 C14.2634783,1.16173913 14.1852174,1.1226087 14.0686957,1.04434783 C13.9513043,0.986086957 13.833913,0.907826087 13.7365217,0.849565217 C13.6191304,0.790434783 13.5026087,0.713043478 13.3652174,0.653913043 C13.2486957,0.575652174 13.1313043,0.536521739 13.033913,0.47826087 C12.9365217,0.439130435 12.8773913,0.42 12.8382609,0.42 C12.7017391,0.42 12.6043478,0.47826087 12.526087,0.595652174 L11.9408696,1.62956522 C11.2773913,1.51304348 10.6330435,1.45391304 9.98869565,1.45391304 C8.0373913,1.45391304 6.24173913,1.9426087 4.5826087,2.9373913 C2.9426087,3.91391304 1.5573913,5.26 0.444347826,6.97826087 C0.307826087,7.19217391 0.230434783,7.44608696 0.230434783,7.71913043 C0.230434783,7.99304348 0.307826087,8.24695652 0.444347826,8.48086957 L0.444347826,8.48086957 Z M5.77304348,3.87478261 C5.32434783,4.63565217 5.10956522,5.45565217 5.10956522,6.33391304 C5.10956522,7.11478261 5.28521739,7.83652174 5.63652174,8.53913043 C5.98782609,9.24173913 6.49565217,9.80782609 7.12,10.2765217 L6.26086957,11.7991304 C4.38782609,10.96 2.82608696,9.59304348 1.61565217,7.71913043 C2.72869565,6.00173913 4.11391304,4.73304348 5.77304348,3.87478261 L5.77304348,3.87478261 Z M7.64695652,3.99130435 C8.29130435,3.34782609 9.07130435,3.01565217 9.98869565,3.01565217 C10.126087,3.01565217 10.2426087,3.07391304 10.36,3.17217391 C10.4573913,3.26956522 10.4965217,3.38695652 10.4965217,3.5426087 C10.4965217,3.67913043 10.4573913,3.81565217 10.36,3.91391304 C10.2426087,4.01130435 10.126087,4.06956522 9.98869565,4.06956522 C9.36434783,4.06956522 8.81826087,4.28434783 8.38869565,4.73304348 C7.94,5.1626087 7.72521739,5.70956522 7.72521739,6.33391304 C7.72521739,6.47043478 7.66608696,6.58782609 7.56869565,6.70434783 C7.47130435,6.8026087 7.33478261,6.84086957 7.19826087,6.84086957 C7.04173913,6.84086957 6.92521739,6.8026087 6.82695652,6.70434783 C6.72956522,6.58782609 6.67130435,6.47043478 6.67130435,6.33391304 C6.67130435,5.41652174 7.0026087,4.63565217 7.64695652,3.99130435 L7.64695652,3.99130435 Z M14.5565217,12.9695652 C16.0008696,12.2869565 17.2495652,11.3104348 18.3426087,10.0617391 C18.8504348,9.47652174 19.2408696,8.94956522 19.5330435,8.48086957 C19.6695652,8.22695652 19.7478261,7.97304348 19.7478261,7.71913043 C19.7478261,7.46608696 19.6695652,7.21217391 19.5330435,6.97826087 C19.1234783,6.27478261 18.5965217,5.61130435 17.9521739,4.96782609 C17.3278261,4.32347826 16.6643478,3.7573913 15.9617391,3.30869565 L15.2782609,4.51826087 C16.4886957,5.35826087 17.5226087,6.43130435 18.3626087,7.71913043 C17.4843478,9.08608696 16.3713043,10.1982609 15.0634783,11.0765217 C13.7556522,11.9356522 12.3313043,12.4234783 10.7895652,12.56 L9.98869565,14.0043478 C11.6086957,14.0043478 13.1313043,13.6530435 14.5565217,12.9695652 L14.5565217,12.9695652 Z M14.0095652,9.08608696 C14.5756522,8.26608696 14.8686957,7.32956522 14.8686957,6.33391304 C14.8686957,6.04086957 14.8486957,5.74869565 14.7904348,5.41652174 L11.726087,10.8817391 C12.6826087,10.5104348 13.4434783,9.92521739 14.0095652,9.08608696 L14.0095652,9.08608696 Z" id="Fill-10"></path>
                    </g>
                </g>
            </g>
        </g>
    </g>
</svg>