<?xml version="1.0" encoding="UTF-8"?>
<svg width="76px" height="56px" viewBox="0 0 76 56" version="1.1" xmlns="http://www.w3.org/2000/svg" xmlns:xlink="http://www.w3.org/1999/xlink">
    <!-- Generator: Sketch 45.1 (43504) - http://www.bohemiancoding.com/sketch -->
    <title>Group 3</title>
    <desc>Created with Sketch.</desc>
    <defs></defs>
    <g id="Page-1" stroke="none" stroke-width="1" fill="none" fill-rule="evenodd">
        <g id="04-3-clubCharity-detailsDonate" transform="translate(-756.000000, -525.000000)">
            <g id="Group-9" transform="translate(332.000000, 226.000000)">
                <g id="Group-5" transform="translate(420.000000, 299.000000)">
                    <g id="Group-3" transform="translate(4.000000, 0.000000)">
                        <polygon id="Fill-128" fill="#E6E6E6" points="0 11.5294118 76 11.5294118 76 42.8235294 0 42.8235294"></polygon>
                        <path d="M4.95685217,56 L71.0438087,56 C73.7814609,56 76.0003304,53.788 76.0003304,51.0588235 L76.0003304,42.8235294 L0.000330434786,42.8235294 L0.000330434786,51.0588235 C0.000330434786,53.788 2.2192,56 4.95685217,56" id="Fill-129" fill="#E79800"></path>
                        <path d="M71.0438087,0 L4.95685217,0 C2.2192,0 0.000330434786,2.212 0.000330434786,4.94117647 L0.000330434786,13.1764706 L76.0003304,13.1764706 L76.0003304,4.94117647 C76.0003304,2.212 73.7814609,0 71.0438087,0" id="Fill-130" fill="#1A1876"></path>
                        <polygon id="Fill-131" fill="#1A1876" points="30.1328435 35.9058824 34.4433652 35.9058824 37.1413652 20.1336471 32.8291913 20.1336471"></polygon>
                        <path d="M45.8367565,26.4665882 C44.3299739,25.7369412 43.4064087,25.2494118 43.4163217,24.5115294 C43.4163217,23.856 44.1978,23.1543529 45.8863217,23.1543529 C47.2675391,23.1329412 48.3811043,23.4129412 49.5012783,23.94 L50.0861478,20.5207059 C49.2319739,20.2011765 47.893713,19.8585882 46.221713,19.8585882 C41.9607565,19.8585882 38.9587565,21.9981176 38.9339739,25.0632941 C38.9091913,27.3296471 41.0768435,28.5945882 42.7124957,29.3489412 C44.3911043,30.1214118 44.9561478,30.6155294 44.947887,31.3056471 C44.9379739,32.3630588 43.6079739,32.8456471 42.3671913,32.8456471 C40.4539739,32.8456471 39.4891043,32.5508235 37.7526696,31.7668235 L37.1479739,35.2981176 C38.1558,35.7378824 40.0178,36.12 41.9524957,36.1397647 C46.4860609,36.1397647 49.4285826,34.0249412 49.4616261,30.7505882 C49.4731913,28.9569412 48.3249304,27.5915294 45.8367565,26.4665882" id="Fill-132" fill="#1A1876"></path>
                        <path d="M55.8256348,30.3157647 C56.0040696,29.8611765 57.7636348,25.3564706 58.1155478,24.4011765 C58.6987652,27.1204706 58.1304174,24.4818824 59.4058957,30.3157647 L55.8256348,30.3157647 Z M61.1423304,20.1484706 L57.8098957,20.1484706 C56.777287,20.1484706 56.0057217,20.4301176 55.5513739,21.4562353 L49.1475478,35.9108235 L53.6761565,35.9108235 C53.6761565,35.9108235 54.4163304,33.9672941 54.5848522,33.5407059 C55.0805043,33.5407059 59.4785913,33.5472941 60.1080696,33.5472941 C60.2369391,34.0990588 60.6334609,35.9108235 60.6334609,35.9108235 L64.6350261,35.9108235 L61.1423304,20.1484706 Z" id="Fill-133" fill="#1A1876"></path>
                        <path d="M26.5162348,20.1451765 L22.2932783,30.9004706 L21.843887,28.7148235 L20.3321478,21.4661176 C20.0711043,20.468 19.3144087,20.1698824 18.3776261,20.1352941 L11.4219739,20.1352941 L11.3674522,20.4630588 C13.0592783,20.8715294 14.5710174,21.4611765 15.897713,22.1924706 L19.7324087,35.8910588 L24.295713,35.8861176 L31.0844957,20.1435294 L26.5162348,20.1435294 L26.5162348,20.1451765 Z" id="Fill-134" fill="#1A1876"></path>
                    </g>
                </g>
            </g>
        </g>
    </g>
</svg>