<?xml version="1.0" encoding="UTF-8"?>
<svg width="73px" height="79px" viewBox="0 0 73 79" version="1.1" xmlns="http://www.w3.org/2000/svg" xmlns:xlink="http://www.w3.org/1999/xlink">
    <!-- Generator: Sketch 45 (43475) - http://www.bohemiancoding.com/sketch -->
    <title>Group 7 Copy</title>
    <desc>Created with Sketch.</desc>
    <defs></defs>
    <g id="Page-1" stroke="none" stroke-width="1" fill="none" fill-rule="evenodd">
        <g id="Group-3" transform="translate(0.000000, -232.000000)">
            <g id="Group-9" transform="translate(0.000000, 112.000000)">
                <g id="Group-7-Copy" transform="translate(0.000000, 120.000000)">
                    <polygon id="Fill-97" fill="#EAC3A2" points="26.3886547 38.3360198 46.1801457 38.3360198 46.1801457 63.6397466 26.3886547 63.6397466"></polygon>
                    <path d="M54.4266003,18.0930383 L54.4266003,31.5883593 C54.4266003,41.8194995 46.2873497,50.1444256 36.2844002,50.1444256 C26.2814508,50.1444256 18.1422001,41.8194995 18.1422001,31.5883593 L18.1422001,18.0930383 L54.4266003,18.0930383 Z" id="Fill-98" fill="#F1D9C5"></path>
                    <path d="M72.5688005,72.0900105 C72.5688005,69.2863576 70.5418219,66.1065226 68.0332504,64.9830371 L46.1801457,55.205677 C43.3961427,57.3143209 39.9887076,58.5795073 36.2844002,58.5795073 C32.5800928,58.5795073 29.1726578,57.3143209 26.4183419,55.205677 L4.54214719,64.9830371 C2.0335757,66.1048356 0,69.2897314 0,72.0900105 L0,77.1305129 C0,78.0650638 0.742180914,78.8224887 1.6525895,78.8224887 L70.916211,78.8224887 C71.8299181,78.8224887 72.5688005,78.0836199 72.5688005,77.1305129 L72.5688005,72.0900105 Z" id="Fill-99" fill="#72C472"></path>
                    <path d="M18.1422001,18.0911827 C18.1422001,12.5024329 22.3231526,6.4447207 27.467291,4.56549725 L39.6819395,0.103606755 C40.5379215,-0.208472543 41.5604819,0.208195492 41.9645582,1.0347839 L44.5308548,6.28446376 C49.9966049,6.28446376 54.4266003,10.8273262 54.4266003,16.4059545 L54.4266003,26.5274452 C54.4266003,21.8698726 50.733838,18.0928696 46.1801457,18.0928696 L26.3886547,18.0928696 C21.8349625,18.0928696 18.1422001,21.8698726 18.1422001,26.5274452 L18.1422001,18.0911827 Z" id="Fill-100" fill="#444444"></path>
                    <path d="M36.2844002,58.5790012 C32.5800928,58.5790012 29.1726578,57.3138149 26.4183419,55.205171 L26.4100955,55.2085448 L22.3858256,57.0084832 L25.5359713,64.883003 C25.9581898,65.937325 27.2611296,66.2696472 28.1187609,65.539213 L36.2844002,58.5790012 L44.4500396,65.539213 C45.3076708,66.2696472 46.6106107,65.937325 47.0328291,64.883003 L50.1879227,56.9983617 L46.1801457,55.205171 C43.3961427,57.3138149 39.9887076,58.5790012 36.2844002,58.5790012" id="Fill-101" fill="#FFFFFF"></path>
                </g>
            </g>
        </g>
    </g>
</svg>