<?xml version="1.0" encoding="UTF-8"?>
<svg width="76px" height="67px" viewBox="0 0 76 67" version="1.1" xmlns="http://www.w3.org/2000/svg" xmlns:xlink="http://www.w3.org/1999/xlink">
    <!-- Generator: Sketch 45.1 (43504) - http://www.bohemiancoding.com/sketch -->
    <title>calendar</title>
    <desc>Created with Sketch.</desc>
    <defs>
        <polygon id="path-1" points="0 66.6271257 75.7946051 66.6271257 75.7946051 0.19949401 0 0.19949401"></polygon>
        <polygon id="path-3" points="0 60.8165044 0 0.320236307 74.2355528 0.320236307 74.2355528 60.8165044"></polygon>
        <polygon id="path-5" points="0 0.320313781 0 12.0780646 74.2355528 12.0780646 74.2355528 0.320313781 5.28201058e-21 0.320313781"></polygon>
        <polygon id="path-7" points="0 66.8149987 75.7946051 66.8149987 75.7946051 0.38736701 0 0.38736701"></polygon>
    </defs>
    <g id="Page-1" stroke="none" stroke-width="1" fill="none" fill-rule="evenodd">
        <g id="HomePage" transform="translate(-654.000000, -1668.000000)">
            <g id="Upcoming" transform="translate(0.000000, 1368.000000)">
                <g id="Group-9" transform="translate(70.000000, 293.000000)">
                    <g id="calendar" transform="translate(584.000000, 7.000000)">
                        <g id="Page-1-Copy-4">
                            <g id="Group-38" transform="translate(0.000000, 0.187873)">
                                <path d="M75.7945272,10.0609671 L75.7945272,66.6270095 L11.8500759,66.6270095 L1.55889641,56.398971 L1.55889641,10.0609671 C1.55889641,7.89054979 3.32950154,6.13074146 5.51323487,6.13074146 L71.8401887,6.13074146 C74.0243118,6.13074146 75.7945272,7.89054979 75.7945272,10.0609671 Z" id="Fill-1" fill="#DFDFDF"></path>
                                <path d="M75.7945272,17.8885698 L1.55889641,17.8885698 L1.55889641,10.0610446 C1.55889641,7.89023989 3.32950154,6.13081893 5.51323487,6.13081893 L71.8401887,6.13081893 C74.0243118,6.13081893 75.7945272,7.89023989 75.7945272,10.0610446 L75.7945272,17.8885698 Z" id="Fill-3" fill="#DFDFDF"></path>
                                <mask id="mask-2" fill="white">
                                    <use xlink:href="#path-1"></use>
                                </mask>
                                <g id="Clip-6"></g>
                                <polygon id="Fill-5" fill="#DFDFDF" mask="url(#mask-2)" points="53.0402051 29.7931715 58.4443897 29.7931715 58.4443897 24.4219405 53.0402051 24.4219405"></polygon>
                                <polygon id="Fill-7" fill="#DFDFDF" mask="url(#mask-2)" points="44.5075487 29.7931715 49.9117333 29.7931715 49.9117333 24.4219405 44.5075487 24.4219405"></polygon>
                                <polygon id="Fill-8" fill="#DFDFDF" mask="url(#mask-2)" points="35.9745026 29.7931715 41.3786872 29.7931715 41.3786872 24.4219405 35.9745026 24.4219405"></polygon>
                                <polygon id="Fill-9" fill="#DFDFDF" mask="url(#mask-2)" points="27.4418462 29.7931715 32.8460308 29.7931715 32.8460308 24.4219405 27.4418462 24.4219405"></polygon>
                                <polygon id="Fill-10" fill="#DFDFDF" mask="url(#mask-2)" points="18.9091897 29.7931715 24.3133744 29.7931715 24.3133744 24.4219405 18.9091897 24.4219405"></polygon>
                                <polygon id="Fill-11" fill="#DFDFDF" mask="url(#mask-2)" points="10.3761436 29.7931715 15.7803282 29.7931715 15.7803282 24.4219405 10.3761436 24.4219405"></polygon>
                                <polygon id="Fill-12" fill="#DFDFDF" mask="url(#mask-2)" points="61.5732513 38.8393533 66.9774359 38.8393533 66.9774359 33.4681223 61.5732513 33.4681223"></polygon>
                                <polygon id="Fill-13" fill="#DFDFDF" mask="url(#mask-2)" points="53.0402051 38.8393533 58.4443897 38.8393533 58.4443897 33.4681223 53.0402051 33.4681223"></polygon>
                                <polygon id="Fill-14" fill="#DFDFDF" mask="url(#mask-2)" points="44.5075487 38.8393533 49.9117333 38.8393533 49.9117333 33.4681223 44.5075487 33.4681223"></polygon>
                                <polygon id="Fill-15" fill="#DFDFDF" mask="url(#mask-2)" points="35.9745026 38.8393533 41.3786872 38.8393533 41.3786872 33.4681223 35.9745026 33.4681223"></polygon>
                                <polygon id="Fill-16" fill="#DFDFDF" mask="url(#mask-2)" points="27.4418462 38.8393533 32.8460308 38.8393533 32.8460308 33.4681223 27.4418462 33.4681223"></polygon>
                                <polygon id="Fill-17" fill="#DFDFDF" mask="url(#mask-2)" points="18.9091897 38.8393533 24.3133744 38.8393533 24.3133744 33.4681223 18.9091897 33.4681223"></polygon>
                                <polygon id="Fill-18" fill="#DFDFDF" mask="url(#mask-2)" points="10.3761436 38.8393533 15.7803282 38.8393533 15.7803282 33.4681223 10.3761436 33.4681223"></polygon>
                                <polygon id="Fill-19" fill="#DFDFDF" mask="url(#mask-2)" points="61.5732513 47.8851477 66.9774359 47.8851477 66.9774359 42.5139167 61.5732513 42.5139167"></polygon>
                                <polygon id="Fill-20" fill="#DFDFDF" mask="url(#mask-2)" points="53.0402051 47.8851477 58.4443897 47.8851477 58.4443897 42.5139167 53.0402051 42.5139167"></polygon>
                                <polygon id="Fill-21" fill="#DFDFDF" mask="url(#mask-2)" points="44.5075487 47.8851477 49.9117333 47.8851477 49.9117333 42.5139167 44.5075487 42.5139167"></polygon>
                                <polygon id="Fill-22" fill="#DFDFDF" mask="url(#mask-2)" points="35.9745026 47.8851477 41.3786872 47.8851477 41.3786872 42.5139167 35.9745026 42.5139167"></polygon>
                                <polygon id="Fill-23" fill="#DFDFDF" mask="url(#mask-2)" points="27.4418462 47.8851477 32.8460308 47.8851477 32.8460308 42.5139167 27.4418462 42.5139167"></polygon>
                                <polygon id="Fill-24" fill="#DFDFDF" mask="url(#mask-2)" points="18.9091897 47.8851477 24.3133744 47.8851477 24.3133744 42.5139167 18.9091897 42.5139167"></polygon>
                                <polygon id="Fill-25" fill="#DFDFDF" mask="url(#mask-2)" points="10.3761436 47.8851477 15.7803282 47.8851477 15.7803282 42.5139167 10.3761436 42.5139167"></polygon>
                                <polygon id="Fill-26" fill="#DFDFDF" mask="url(#mask-2)" points="61.5732513 56.9317168 66.9774359 56.9317168 66.9774359 51.5604859 61.5732513 51.5604859"></polygon>
                                <polygon id="Fill-27" fill="#DFDFDF" mask="url(#mask-2)" points="53.0402051 56.9317168 58.4443897 56.9317168 58.4443897 51.5604859 53.0402051 51.5604859"></polygon>
                                <polygon id="Fill-28" fill="#DFDFDF" mask="url(#mask-2)" points="44.5075487 56.9317168 49.9117333 56.9317168 49.9117333 51.5604859 44.5075487 51.5604859"></polygon>
                                <polygon id="Fill-29" fill="#DFDFDF" mask="url(#mask-2)" points="35.9745026 56.9317168 41.3786872 56.9317168 41.3786872 51.5604859 35.9745026 51.5604859"></polygon>
                                <polygon id="Fill-30" fill="#DFDFDF" mask="url(#mask-2)" points="27.4418462 56.9317168 32.8460308 56.9317168 32.8460308 51.5604859 27.4418462 51.5604859"></polygon>
                                <path d="M19.3138215,12.7007571 L13.0783138,12.7007571 L13.0783138,6.89451299 C13.0783138,5.18312554 14.4739856,3.79596428 16.1958728,3.79596428 L16.1958728,3.79596428 C17.91776,3.79596428 19.3138215,5.18312554 19.3138215,6.89451299 L19.3138215,12.7007571 Z" id="Fill-31" fill="#DFDFDF" mask="url(#mask-2)"></path>
                                <path d="M64.2752267,12.7007571 L58.039719,12.7007571 L58.039719,6.89451299 C58.039719,5.18312554 59.4353908,3.79596428 61.1572779,3.79596428 C62.8791651,3.79596428 64.2752267,5.18312554 64.2752267,6.89451299 L64.2752267,12.7007571 Z" id="Fill-32" fill="#DFDFDF" mask="url(#mask-2)"></path>
                                <path d="M19.3138215,10.6539098 L13.0783138,10.6539098 L13.0783138,4.84766571 C13.0783138,3.13627826 14.4739856,1.749117 16.1958728,1.749117 L16.1958728,1.749117 C17.91776,1.749117 19.3138215,3.13627826 19.3138215,4.84766571 L19.3138215,10.6539098 Z" id="Fill-33" fill="#DFDFDF" mask="url(#mask-2)"></path>
                                <path d="M64.2752267,10.6539098 L58.039719,10.6539098 L58.039719,4.84766571 C58.039719,3.13627826 59.4353908,1.749117 61.1572779,1.749117 C62.8791651,1.749117 64.2752267,3.13627826 64.2752267,4.84766571 L64.2752267,10.6539098 Z" id="Fill-34" fill="#DFDFDF" mask="url(#mask-2)"></path>
                                <path d="M18.1159446,5.00005589 C18.1159446,6.05369416 17.2561703,6.90822579 16.1960677,6.90822579 C15.1355754,6.90822579 14.2761908,6.05369416 14.2761908,5.00005589 C14.2761908,3.94603026 15.1355754,3.091886 16.1960677,3.091886 C17.2561703,3.091886 18.1159446,3.94603026 18.1159446,5.00005589" id="Fill-35" fill="#DFDFDF" mask="url(#mask-2)"></path>
                                <path d="M63.0773497,5.00005589 C63.0773497,6.05369416 62.2175754,6.90822579 61.1574728,6.90822579 C60.0969805,6.90822579 59.2375959,6.05369416 59.2375959,5.00005589 C59.2375959,3.94603026 60.0969805,3.091886 61.1574728,3.091886 C62.2175754,3.091886 63.0773497,3.94603026 63.0773497,5.00005589" id="Fill-36" fill="#DFDFDF" mask="url(#mask-2)"></path>
                                <polygon id="Fill-37" fill="#DFDFDF" mask="url(#mask-2)" points="11.8499979 56.3988548 1.55881846 56.3988548 11.8499979 66.6272807"></polygon>
                            </g>
                            <g id="Group-41" transform="translate(0.000000, 4.448910)">
                                <mask id="mask-4" fill="white">
                                    <use xlink:href="#path-3"></use>
                                </mask>
                                <g id="Clip-40"></g>
                                <path d="M74.2355528,4.25046199 L74.2355528,60.8165044 L10.2911015,60.8165044 L-7.7948718e-05,50.5884658 L-7.7948718e-05,4.25046199 C-7.7948718e-05,2.08004463 1.77052718,0.320236307 3.95426051,0.320236307 L70.2812144,0.320236307 C72.4653374,0.320236307 74.2355528,2.08004463 74.2355528,4.25046199" id="Fill-39" fill="#FFFFFF" mask="url(#mask-4)"></path>
                            </g>
                            <g id="Group-44" transform="translate(0.000000, 4.448910)">
                                <mask id="mask-6" fill="white">
                                    <use xlink:href="#path-5"></use>
                                </mask>
                                <g id="Clip-43"></g>
                                <path d="M74.2355528,12.0780646 L-7.7948718e-05,12.0780646 L-7.7948718e-05,4.25053947 C-7.7948718e-05,2.07973474 1.77052718,0.320313781 3.95426051,0.320313781 L70.2812144,0.320313781 C72.4653374,0.320313781 74.2355528,2.07973474 74.2355528,4.25053947 L74.2355528,12.0780646 Z" id="Fill-42" fill="#6EC410" mask="url(#mask-6)"></path>
                            </g>
                            <mask id="mask-8" fill="white">
                                <use xlink:href="#path-7"></use>
                            </mask>
                            <g id="Clip-46"></g>
                            <polygon id="Fill-45" fill="#FF7043" mask="url(#mask-8)" points="51.4812308 28.4315764 56.8854154 28.4315764 56.8854154 23.0603455 51.4812308 23.0603455"></polygon>
                            <polygon id="Fill-47" fill="#BDBDBD" mask="url(#mask-8)" points="42.9485744 28.4315764 48.352759 28.4315764 48.352759 23.0603455 42.9485744 23.0603455"></polygon>
                            <polygon id="Fill-48" fill="#BDBDBD" mask="url(#mask-8)" points="34.4155282 28.4315764 39.8197128 28.4315764 39.8197128 23.0603455 34.4155282 23.0603455"></polygon>
                            <polygon id="Fill-49" fill="#BDBDBD" mask="url(#mask-8)" points="25.8828718 28.4315764 31.2870564 28.4315764 31.2870564 23.0603455 25.8828718 23.0603455"></polygon>
                            <polygon id="Fill-50" fill="#BDBDBD" mask="url(#mask-8)" points="17.3502154 28.4315764 22.7544 28.4315764 22.7544 23.0603455 17.3502154 23.0603455"></polygon>
                            <polygon id="Fill-51" fill="#BDBDBD" mask="url(#mask-8)" points="8.81716923 28.4315764 14.2213538 28.4315764 14.2213538 23.0603455 8.81716923 23.0603455"></polygon>
                            <polygon id="Fill-52" fill="#FF7043" mask="url(#mask-8)" points="60.0142769 37.4777582 65.4184615 37.4777582 65.4184615 32.1065273 60.0142769 32.1065273"></polygon>
                            <polygon id="Fill-53" fill="#FF7043" mask="url(#mask-8)" points="51.4812308 37.4777582 56.8854154 37.4777582 56.8854154 32.1065273 51.4812308 32.1065273"></polygon>
                            <polygon id="Fill-54" fill="#BDBDBD" mask="url(#mask-8)" points="42.9485744 37.4777582 48.352759 37.4777582 48.352759 32.1065273 42.9485744 32.1065273"></polygon>
                            <polygon id="Fill-55" fill="#BDBDBD" mask="url(#mask-8)" points="34.4155282 37.4777582 39.8197128 37.4777582 39.8197128 32.1065273 34.4155282 32.1065273"></polygon>
                            <polygon id="Fill-56" fill="#BDBDBD" mask="url(#mask-8)" points="25.8828718 37.4777582 31.2870564 37.4777582 31.2870564 32.1065273 25.8828718 32.1065273"></polygon>
                            <polygon id="Fill-57" fill="#BDBDBD" mask="url(#mask-8)" points="17.3502154 37.4777582 22.7544 37.4777582 22.7544 32.1065273 17.3502154 32.1065273"></polygon>
                            <polygon id="Fill-58" fill="#BDBDBD" mask="url(#mask-8)" points="8.81716923 37.4777582 14.2213538 37.4777582 14.2213538 32.1065273 8.81716923 32.1065273"></polygon>
                            <polygon id="Fill-59" fill="#FF7043" mask="url(#mask-8)" points="60.0142769 46.5235527 65.4184615 46.5235527 65.4184615 41.1523217 60.0142769 41.1523217"></polygon>
                            <polygon id="Fill-60" fill="#FF7043" mask="url(#mask-8)" points="51.4812308 46.5235527 56.8854154 46.5235527 56.8854154 41.1523217 51.4812308 41.1523217"></polygon>
                            <polygon id="Fill-61" fill="#BDBDBD" mask="url(#mask-8)" points="42.9485744 46.5235527 48.352759 46.5235527 48.352759 41.1523217 42.9485744 41.1523217"></polygon>
                            <polygon id="Fill-62" fill="#BDBDBD" mask="url(#mask-8)" points="34.4155282 46.5235527 39.8197128 46.5235527 39.8197128 41.1523217 34.4155282 41.1523217"></polygon>
                            <polygon id="Fill-63" fill="#BDBDBD" mask="url(#mask-8)" points="25.8828718 46.5235527 31.2870564 46.5235527 31.2870564 41.1523217 25.8828718 41.1523217"></polygon>
                            <polygon id="Fill-64" fill="#BDBDBD" mask="url(#mask-8)" points="17.3502154 46.5235527 22.7544 46.5235527 22.7544 41.1523217 17.3502154 41.1523217"></polygon>
                            <polygon id="Fill-65" fill="#BDBDBD" mask="url(#mask-8)" points="8.81716923 46.5235527 14.2213538 46.5235527 14.2213538 41.1523217 8.81716923 41.1523217"></polygon>
                            <polygon id="Fill-66" fill="#FF7043" mask="url(#mask-8)" points="60.0142769 55.5701218 65.4184615 55.5701218 65.4184615 50.1988908 60.0142769 50.1988908"></polygon>
                            <polygon id="Fill-67" fill="#FF7043" mask="url(#mask-8)" points="51.4812308 55.5701218 56.8854154 55.5701218 56.8854154 50.1988908 51.4812308 50.1988908"></polygon>
                            <polygon id="Fill-68" fill="#BDBDBD" mask="url(#mask-8)" points="42.9485744 55.5701218 48.352759 55.5701218 48.352759 50.1988908 42.9485744 50.1988908"></polygon>
                            <polygon id="Fill-69" fill="#BDBDBD" mask="url(#mask-8)" points="34.4155282 55.5701218 39.8197128 55.5701218 39.8197128 50.1988908 34.4155282 50.1988908"></polygon>
                            <polygon id="Fill-70" fill="#BDBDBD" mask="url(#mask-8)" points="25.8828718 55.5701218 31.2870564 55.5701218 31.2870564 50.1988908 25.8828718 50.1988908"></polygon>
                            <path d="M17.7548472,11.3391621 L11.5193395,11.3391621 L11.5193395,5.53291795 C11.5193395,3.8215305 12.9150113,2.43436924 14.6368985,2.43436924 L14.6368985,2.43436924 C16.3587856,2.43436924 17.7548472,3.8215305 17.7548472,5.53291795 L17.7548472,11.3391621 Z" id="Fill-71" fill="#417505" mask="url(#mask-8)"></path>
                            <path d="M62.7162523,11.3391621 L56.4807446,11.3391621 L56.4807446,5.53291795 C56.4807446,3.8215305 57.8764164,2.43436924 59.5983036,2.43436924 C61.3201908,2.43436924 62.7162523,3.8215305 62.7162523,5.53291795 L62.7162523,11.3391621 Z" id="Fill-72" fill="#417505" mask="url(#mask-8)"></path>
                            <path d="M17.7548472,9.29231479 L11.5193395,9.29231479 L11.5193395,3.48607067 C11.5193395,1.77468322 12.9150113,0.387521957 14.6368985,0.387521957 L14.6368985,0.387521957 C16.3587856,0.387521957 17.7548472,1.77468322 17.7548472,3.48607067 L17.7548472,9.29231479 Z" id="Fill-73" fill="#616161" mask="url(#mask-8)"></path>
                            <path d="M62.7162523,9.29231479 L56.4807446,9.29231479 L56.4807446,3.48607067 C56.4807446,1.77468322 57.8764164,0.387521957 59.5983036,0.387521957 C61.3201908,0.387521957 62.7162523,1.77468322 62.7162523,3.48607067 L62.7162523,9.29231479 Z" id="Fill-74" fill="#616161" mask="url(#mask-8)"></path>
                            <path d="M16.5569703,3.63846085 C16.5569703,4.69209912 15.6971959,5.54663074 14.6370933,5.54663074 C13.576601,5.54663074 12.7172164,4.69209912 12.7172164,3.63846085 C12.7172164,2.58443522 13.576601,1.73029096 14.6370933,1.73029096 C15.6971959,1.73029096 16.5569703,2.58443522 16.5569703,3.63846085" id="Fill-75" fill="#EEEEEE" mask="url(#mask-8)"></path>
                            <path d="M61.5183754,3.63846085 C61.5183754,4.69209912 60.658601,5.54663074 59.5984985,5.54663074 C58.5380062,5.54663074 57.6786215,4.69209912 57.6786215,3.63846085 C57.6786215,2.58443522 58.5380062,1.73029096 59.5984985,1.73029096 C60.658601,1.73029096 61.5183754,2.58443522 61.5183754,3.63846085" id="Fill-76" fill="#EEEEEE" mask="url(#mask-8)"></path>
                            <polygon id="Fill-77" fill="#BDBDBD" mask="url(#mask-8)" points="10.2910236 55.0372597 -0.000155897436 55.0372597 10.2910236 65.2656856"></polygon>
                        </g>
                    </g>
                </g>
            </g>
        </g>
    </g>
</svg>