<?xml version="1.0" encoding="UTF-8"?>
<svg width="63px" height="64px" viewBox="0 0 63 64" version="1.1" xmlns="http://www.w3.org/2000/svg" xmlns:xlink="http://www.w3.org/1999/xlink">
    <!-- Generator: Sketch 45.1 (43504) - http://www.bohemiancoding.com/sketch -->
    <title>cash</title>
    <desc>Created with Sketch.</desc>
    <defs></defs>
    <g id="Page-1" stroke="none" stroke-width="1" fill="none" fill-rule="evenodd">
        <g id="04-3-clubCharity-detailsDonate" transform="translate(-464.000000, -519.000000)">
            <g id="Group-9" transform="translate(332.000000, 226.000000)">
                <g id="Group-2" transform="translate(132.000000, 293.000000)">
                    <g id="Group-6">
                        <g id="cash">
                            <path d="M42.194387,40.0491574 C41.923213,39.6787745 41.5027565,39.4717957 41.0206696,39.4908596 L12.2598,40.8525617 C11.5298217,40.8866043 10.9559739,41.4857532 10.9559739,42.2129021 C10.9559739,54.2258383 20.786713,64.0001362 32.8690174,64.0001362 C33.4401261,64.0001362 33.9509739,63.6474553 34.1523,63.1163915 L42.3696913,41.3291574 C42.5313,40.9002213 42.4641913,40.4195404 42.194387,40.0491574" id="Fill-437" fill="#F2C7AA"></path>
                            <path d="M9.58695652,13.6170213 L9.58695652,8.17021277 C9.58695652,5.91387234 11.4262826,4.08510638 13.6956522,4.08510638 C15.9650217,4.08510638 17.8043478,5.91387234 17.8043478,8.17021277 L17.8043478,13.6170213" id="Fill-438" fill="#F2C7AA"></path>
                            <path d="M20.5434783,13.6170213 L20.5434783,6.80851064 C20.5434783,4.55217021 22.3828043,2.72340426 24.6521739,2.72340426 C26.9215435,2.72340426 28.7608696,4.55217021 28.7608696,6.80851064 L28.7608696,13.6170213" id="Fill-439" fill="#F2C7AA"></path>
                            <path d="M42.4565217,13.6170213 L42.4565217,6.80851064 C42.4565217,4.55217021 44.2958478,2.72340426 46.5652174,2.72340426 C48.834587,2.72340426 50.673913,4.55217021 50.673913,6.80851064 L50.673913,13.6170213" id="Fill-440" fill="#F2C7AA"></path>
                            <path d="M31.5,13.6170213 L31.5,4.08510638 C31.5,1.82876596 33.3393261,0 35.6086957,0 C37.8780652,0 39.7173913,1.82876596 39.7173913,4.08510638 L39.7173913,13.6170213" id="Fill-441" fill="#F2C7AA"></path>
                            <path d="M61.6304348,46.2978723 L1.36956522,46.2978723 C0.613565217,46.2978723 0,45.6878298 0,44.9361702 L0,12.2553191 C0,11.5036596 0.613565217,10.893617 1.36956522,10.893617 L61.6304348,10.893617 C62.3864348,10.893617 63,11.5036596 63,12.2553191 L63,44.9361702 C63,45.6878298 62.3864348,46.2978723 61.6304348,46.2978723" id="Fill-442" fill="#4DA34D"></path>
                            <path d="M50.673913,14.9787234 L12.326087,14.9787234 C12.326087,19.4914043 8.64743478,23.1489362 4.10869565,23.1489362 L4.10869565,34.0425532 C8.64743478,34.0425532 12.326087,37.7000851 12.326087,42.212766 L50.673913,42.212766 C50.673913,37.7000851 54.3525652,34.0425532 58.8913043,34.0425532 L58.8913043,23.1489362 C54.3525652,23.1489362 50.673913,19.4914043 50.673913,14.9787234" id="Fill-443" fill="#9EDB9E"></path>
                            <path d="M31.5,21.787234 C35.2813696,21.787234 38.3478261,24.8360851 38.3478261,28.5957447 C38.3478261,32.3554043 35.2813696,35.4042553 31.5,35.4042553 C27.7186304,35.4042553 24.6521739,32.3554043 24.6521739,28.5957447 C24.6521739,24.8360851 27.7186304,21.787234 31.5,21.787234" id="Fill-444" fill="#4DA34D"></path>
                            <path d="M43.826087,32.6137191 L43.826087,40.8506553 C39.491413,40.8506553 35.1649565,42.8877617 32.265587,46.2974638 L51.6435652,46.2974638 C51.8983043,44.9725277 52.0434783,43.6108255 52.0434783,42.2123574 L52.0434783,23.2329532 C45.9119348,22.4867404 43.826087,26.7338894 43.826087,32.6137191" id="Fill-445" fill-opacity="0.1" fill="#000000"></path>
                            <path d="M54.7826087,23.2330894 C48.6510652,22.4855149 46.5652174,26.7340255 46.5652174,32.6138553 L46.5652174,40.8507915 C39.0326087,40.8507915 31.5,46.9784511 31.5,55.8295149 L31.5,62.6135149 C31.5,63.3624511 32.0985,63.9997277 32.8517609,63.9997277 C44.9422826,64.0092596 54.7826087,54.2322383 54.7826087,42.2124936 L54.7826087,23.2330894 Z" id="Fill-446" fill="#F2C7AA"></path>
                        </g>
                    </g>
                </g>
            </g>
        </g>
    </g>
</svg>