<?xml version="1.0" encoding="UTF-8"?>
<svg width="68px" height="73px" viewBox="0 0 68 73" version="1.1" xmlns="http://www.w3.org/2000/svg" xmlns:xlink="http://www.w3.org/1999/xlink">
    <!-- Generator: Sketch 45.1 (43504) - http://www.bohemiancoding.com/sketch -->
    <title>Group 7</title>
    <desc>Created with Sketch.</desc>
    <defs></defs>
    <g id="Page-1" stroke="none" stroke-width="1" fill="none" fill-rule="evenodd">
        <g id="04-3-clubCharity-detailsDonate" transform="translate(-606.000000, -509.000000)">
            <g id="Group-9" transform="translate(332.000000, 226.000000)">
                <g id="Group-8" transform="translate(260.000000, 283.000000)">
                    <g id="Group-7" transform="translate(14.000000, 0.000000)">
                        <g id="Group-4" transform="translate(7.000000, 18.000000)">
                            <path d="M59.673913,39.2857143 L1.32608696,39.2857143 C0.594086957,39.2857143 0,38.6990476 0,37.9761905 L0,1.30952381 C0,0.586666667 0.594086957,0 1.32608696,0 L59.673913,0 C60.405913,0 61,0.586666667 61,1.30952381 L61,37.9761905 C61,38.6990476 60.405913,39.2857143 59.673913,39.2857143" id="Fill-390" fill="#4DA34D"></path>
                            <path d="M49.0652174,3.92857143 L11.9347826,3.92857143 C11.9347826,8.26833333 8.37291304,11.7857143 3.97826087,11.7857143 L3.97826087,27.5 C8.37291304,27.5 11.9347826,31.017381 11.9347826,35.3571429 L49.0652174,35.3571429 C49.0652174,31.017381 52.627087,27.5 57.0217391,27.5 L57.0217391,11.7857143 C52.627087,11.7857143 49.0652174,8.26833333 49.0652174,3.92857143" id="Fill-391" fill="#9EDB9E"></path>
                            <path d="M30.5,10.4761905 C35.6266522,10.4761905 39.7826087,14.5802381 39.7826087,19.6428571 C39.7826087,24.7054762 35.6266522,28.8095238 30.5,28.8095238 C25.3733478,28.8095238 21.2173913,24.7054762 21.2173913,19.6428571 C21.2173913,14.5802381 25.3733478,10.4761905 30.5,10.4761905" id="Fill-392" fill="#4DA34D"></path>
                            <path d="M31.826087,39.2857143 L55.6956522,39.2857143 L55.6956522,36.6666667 C55.6956522,36.1991667 55.5763043,35.7644048 55.3681087,35.3571429 C55.5763043,34.949881 55.6956522,34.515119 55.6956522,34.047619 L55.6956522,30.1190476 C55.6956522,29.6515476 55.5763043,29.2167857 55.3681087,28.8095238 C55.5763043,28.4022619 55.6956522,27.9675 55.6956522,27.5 L55.6956522,23.5714286 C55.6956522,23.1039286 55.5763043,22.6691667 55.3681087,22.2619048 C55.5763043,21.8546429 55.6956522,21.419881 55.6956522,20.952381 L55.6956522,17.0238095 C55.6956522,16.5563095 55.5763043,16.1215476 55.3681087,15.7142857 C55.5763043,15.3070238 55.6956522,14.8722619 55.6956522,14.4047619 L55.6956522,10.4761905 C55.6956522,7.03738095 49.6924565,5.23809524 43.7608696,5.23809524 C37.8292826,5.23809524 31.826087,7.03738095 31.826087,10.4761905 L31.826087,14.4047619 C31.826087,14.8722619 31.9454348,15.3070238 32.1523043,15.7142857 C31.9454348,16.1215476 31.826087,16.5563095 31.826087,17.0238095 L31.826087,20.952381 C31.826087,21.419881 31.9454348,21.8546429 32.1523043,22.2619048 C31.9454348,22.6691667 31.826087,23.1039286 31.826087,23.5714286 L31.826087,27.5 C31.826087,27.9675 31.9454348,28.4022619 32.1523043,28.8095238 C31.9454348,29.2167857 31.826087,29.6515476 31.826087,30.1190476 L31.826087,34.047619 C31.826087,34.515119 31.9454348,34.949881 32.1523043,35.3571429 C31.9454348,35.7644048 31.826087,36.1991667 31.826087,36.6666667 L31.826087,39.2857143 Z" id="Fill-393" fill-opacity="0.1" fill="#000000"></path>
                            <path d="M57.0217391,44.5238095 L35.8043478,44.5238095 C35.0723478,44.5238095 34.4782609,45.1104762 34.4782609,45.8333333 L34.4782609,49.7619048 C34.4782609,53.2007143 40.4814565,55 46.4130435,55 C52.3446304,55 58.3478261,53.2007143 58.3478261,49.7619048 L58.3478261,45.8333333 C58.3478261,45.1104762 57.7537391,44.5238095 57.0217391,44.5238095" id="Fill-394" fill="#D8BC48"></path>
                            <path d="M46.4130435,40.5952381 C40.4814565,40.5952381 34.4782609,42.3945238 34.4782609,45.8333333 C34.4782609,49.2721429 40.4814565,51.0714286 46.4130435,51.0714286 C52.3446304,51.0714286 58.3478261,49.2721429 58.3478261,45.8333333 C58.3478261,42.3945238 52.3446304,40.5952381 46.4130435,40.5952381" id="Fill-395" fill="#EFD358"></path>
                            <path d="M57.0217391,37.9761905 L35.8043478,37.9761905 C35.0723478,37.9761905 34.4782609,38.5628571 34.4782609,39.2857143 L34.4782609,43.2142857 C34.4782609,46.6530952 40.4814565,48.452381 46.4130435,48.452381 C52.3446304,48.452381 58.3478261,46.6530952 58.3478261,43.2142857 L58.3478261,39.2857143 C58.3478261,38.5628571 57.7537391,37.9761905 57.0217391,37.9761905" id="Fill-396" fill="#D8BC48"></path>
                            <path d="M46.4130435,34.047619 C40.4814565,34.047619 34.4782609,35.8469048 34.4782609,39.2857143 C34.4782609,42.7245238 40.4814565,44.5238095 46.4130435,44.5238095 C52.3446304,44.5238095 58.3478261,42.7245238 58.3478261,39.2857143 C58.3478261,35.8469048 52.3446304,34.047619 46.4130435,34.047619" id="Fill-397" fill="#EFD358"></path>
                            <path d="M57.0217391,31.4285714 L35.8043478,31.4285714 C35.0723478,31.4285714 34.4782609,32.0152381 34.4782609,32.7380952 L34.4782609,36.6666667 C34.4782609,40.1054762 40.4814565,41.9047619 46.4130435,41.9047619 C52.3446304,41.9047619 58.3478261,40.1054762 58.3478261,36.6666667 L58.3478261,32.7380952 C58.3478261,32.0152381 57.7537391,31.4285714 57.0217391,31.4285714" id="Fill-398" fill="#D8BC48"></path>
                            <path d="M46.4130435,27.5 C40.4814565,27.5 34.4782609,29.2992857 34.4782609,32.7380952 C34.4782609,36.1769048 40.4814565,37.9761905 46.4130435,37.9761905 C52.3446304,37.9761905 58.3478261,36.1769048 58.3478261,32.7380952 C58.3478261,29.2992857 52.3446304,27.5 46.4130435,27.5" id="Fill-399" fill="#EFD358"></path>
                            <path d="M57.0217391,24.8809524 L35.8043478,24.8809524 C35.0723478,24.8809524 34.4782609,25.467619 34.4782609,26.1904762 L34.4782609,30.1190476 C34.4782609,33.5578571 40.4814565,35.3571429 46.4130435,35.3571429 C52.3446304,35.3571429 58.3478261,33.5578571 58.3478261,30.1190476 L58.3478261,26.1904762 C58.3478261,25.467619 57.7537391,24.8809524 57.0217391,24.8809524" id="Fill-400" fill="#D8BC48"></path>
                            <path d="M46.4130435,20.952381 C40.4814565,20.952381 34.4782609,22.7516667 34.4782609,26.1904762 C34.4782609,29.6292857 40.4814565,31.4285714 46.4130435,31.4285714 C52.3446304,31.4285714 58.3478261,29.6292857 58.3478261,26.1904762 C58.3478261,22.7516667 52.3446304,20.952381 46.4130435,20.952381" id="Fill-401" fill="#EFD358"></path>
                            <path d="M57.0217391,18.3333333 L35.8043478,18.3333333 C35.0723478,18.3333333 34.4782609,18.92 34.4782609,19.6428571 L34.4782609,23.5714286 C34.4782609,27.0102381 40.4814565,28.8095238 46.4130435,28.8095238 C52.3446304,28.8095238 58.3478261,27.0102381 58.3478261,23.5714286 L58.3478261,19.6428571 C58.3478261,18.92 57.7537391,18.3333333 57.0217391,18.3333333" id="Fill-402" fill="#D8BC48"></path>
                            <path d="M46.4130435,14.4047619 C40.4814565,14.4047619 34.4782609,16.2040476 34.4782609,19.6428571 C34.4782609,23.0816667 40.4814565,24.8809524 46.4130435,24.8809524 C52.3446304,24.8809524 58.3478261,23.0816667 58.3478261,19.6428571 C58.3478261,16.2040476 52.3446304,14.4047619 46.4130435,14.4047619" id="Fill-403" fill="#EFD358"></path>
                            <path d="M57.0217391,11.7857143 L35.8043478,11.7857143 C35.0723478,11.7857143 34.4782609,12.372381 34.4782609,13.0952381 L34.4782609,17.0238095 C34.4782609,20.462619 40.4814565,22.2619048 46.4130435,22.2619048 C52.3446304,22.2619048 58.3478261,20.462619 58.3478261,17.0238095 L58.3478261,13.0952381 C58.3478261,12.372381 57.7537391,11.7857143 57.0217391,11.7857143" id="Fill-404" fill="#D8BC48"></path>
                            <path d="M46.4130435,7.85714286 C40.4814565,7.85714286 34.4782609,9.65642857 34.4782609,13.0952381 C34.4782609,16.5340476 40.4814565,18.3333333 46.4130435,18.3333333 C52.3446304,18.3333333 58.3478261,16.5340476 58.3478261,13.0952381 C58.3478261,9.65642857 52.3446304,7.85714286 46.4130435,7.85714286" id="Fill-405" fill="#EFD358"></path>
                        </g>
                        <path d="M14.293,0.29325 L14.293,0.29325 C13.902,0.68325 13.902,1.31625 14.293,1.70725 L18.586,6.00025 L11,6.00025 C4.925,6.00025 0,10.92525 0,17.00025 L0,22.00025 C0,22.55225 0.448,23.00025 1,23.00025 L1,23.00025 C1.552,23.00025 2,22.55225 2,22.00025 L2,17.00025 C2,12.02925 6.029,8.00025 11,8.00025 L18.586,8.00025 L14.293,12.29325 C13.902,12.68425 13.902,13.31725 14.293,13.70725 C14.683,14.09825 15.316,14.09825 15.707,13.70725 L22.414,7.00025 L15.707,0.29325 C15.316,-0.09775 14.683,-0.09775 14.293,0.29325" id="Fill-483" fill="#D0021B"></path>
                    </g>
                </g>
            </g>
        </g>
    </g>
</svg>