<?xml version="1.0" encoding="UTF-8"?>
<svg width="24px" height="18px" viewBox="0 0 24 18" version="1.1" xmlns="http://www.w3.org/2000/svg" xmlns:xlink="http://www.w3.org/1999/xlink">
    <!-- Generator: Sketch 45.1 (43504) - http://www.bohemiancoding.com/sketch -->
    <title>Group 2</title>
    <desc>Created with Sketch.</desc>
    <defs></defs>
    <g id="Page-1" stroke="none" stroke-width="1" fill="none" fill-rule="evenodd">
        <g id="06-member" transform="translate(-460.000000, -498.000000)">
            <g id="Group-8" transform="translate(392.000000, 176.000000)">
                <g id="Group-2" transform="translate(68.000000, 322.000000)">
                    <path d="M22.9789269,17.5384615 L0.510841757,17.5384615 C0.228969417,17.5384615 0.000203459449,17.3073665 0.000203459449,17.0226244 L0.000203459449,0.515837104 C0.000203459449,0.231095023 0.228969417,0 0.510841757,0 L22.9789269,0 C23.2607992,0 23.4895652,0.231095023 23.4895652,0.515837104 L23.4895652,17.0226244 C23.4895652,17.3073665 23.2607992,17.5384615 22.9789269,17.5384615" id="Fill-247" fill="#B3B3B3"></path>
                    <path d="M11.7448843,6.19004525 C11.8679481,6.19004525 11.991012,6.23492308 12.0885439,6.3241629 L23.3225864,16.640905 C23.4788418,16.7843077 23.5309269,17.0102443 23.4553524,17.2083258 C23.3792673,17.4074389 23.1898205,17.5384615 22.9789269,17.5384615 L0.510841757,17.5384615 C0.29994814,17.5384615 0.110501332,17.4074389 0.0344162254,17.2083258 C-0.041668881,17.0102443 0.0109268637,16.7843077 0.167182183,16.640905 L11.4012247,6.3241629 C11.4987567,6.23492308 11.6218205,6.19004525 11.7448843,6.19004525" id="Fill-248" fill="#D6D6D6"></path>
                    <path d="M11.7448843,11.3484163 C11.6218205,11.3484163 11.4987567,11.3035385 11.4012247,11.2142986 L0.167182183,0.897556561 C0.0109268637,0.754153846 -0.0411582427,0.528217195 0.0344162254,0.330135747 C0.110501332,0.131022624 0.29994814,0 0.510841757,0 L22.9789269,0 C23.1898205,0 23.3792673,0.131022624 23.4553524,0.330135747 C23.5314375,0.528217195 23.4788418,0.754153846 23.3225864,0.897556561 L12.0885439,11.2142986 C11.991012,11.3035385 11.8679481,11.3484163 11.7448843,11.3484163" id="Fill-249" fill="#E6E6E6"></path>
                </g>
            </g>
        </g>
    </g>
</svg>