<?xml version="1.0" encoding="UTF-8"?>
<svg width="71px" height="60px" viewBox="0 0 71 60" version="1.1" xmlns="http://www.w3.org/2000/svg" xmlns:xlink="http://www.w3.org/1999/xlink">
    <!-- Generator: Sketch 45.1 (43504) - http://www.bohemiancoding.com/sketch -->
    <title>Page 1 Copy 3</title>
    <desc>Created with Sketch.</desc>
    <defs></defs>
    <g id="Page-1" stroke="none" stroke-width="1" fill="none" fill-rule="evenodd">
        <g id="Tournament" transform="translate(-605.000000, -296.000000)">
            <g id="Upcoming" transform="translate(0.000000, 133.000000)">
                <g id="Group" transform="translate(66.000000, 163.000000)">
                    <g id="Page-1-Copy-3" transform="translate(539.000000, 0.000000)">
                        <path d="M21.3289153,50.7067429 C20.9905202,53.1616 16.2552782,53.2318857 14.393246,52.7456 C11.5228992,52.0376 10.3685766,49.9536 8.09657661,48.4627429 C3.47699597,45.1838857 -0.963939516,50.8713143 1.71459274,55.2644571 C3.9110121,58.9867429 8.90506048,60.5924571 12.8570121,59.2918857 C16.9595524,57.9576 18.9383911,54.4616 21.8121734,51.3764571 L21.3289153,50.7067429 Z" id="Fill-1" fill="#603913"></path>
                        <polygon id="Fill-3" fill="#603913" points="18.624846 55.0822857 17.9778298 54.2017143 68.1221524 2.12457143 68.8974266 2.86685714"></polygon>
                        <path d="M60.4685242,12.5111429 C60.0270645,12.9688571 59.2970242,12.9825714 58.8366694,12.5431429 C58.3791774,12.1025714 58.3637177,11.3751429 58.8051774,10.9157143 L68.9753548,0.354571429 C69.4179597,-0.104857143 70.1462823,-0.119142857 70.6060645,0.320857143 C71.0652742,0.762 71.0790161,1.49 70.638129,1.94885714 L60.4685242,12.5111429 Z" id="Fill-5" fill="#8DC63F"></path>
                        <path d="M3.41733306,54.8222286 C1.70188145,52.0102286 2.90659113,48.6708 5.206075,47.4902286 C1.89426855,47.5742286 -0.389183065,51.8165143 1.71390565,55.2628 C3.90917984,58.9862286 8.90322823,60.5913714 12.856325,59.2913714 C12.9548089,59.2605143 13.044704,59.2188 13.1397524,59.1850857 C9.48038952,59.7428 5.35780887,58.1125143 3.41733306,54.8222286" id="Fill-7" fill="#FFFFFF"></path>
                        <path d="M49.6308323,50.7067429 C49.9698,53.1616 54.7044694,53.2318857 56.5665016,52.7456 C59.4368484,52.0376 60.5917435,49.9536 62.8637435,48.4627429 C67.4827516,45.1838857 71.9242597,50.8713143 69.2451548,55.2644571 C67.0487355,58.9867429 62.0541145,60.5924571 58.1027355,59.2918857 C54.0001952,57.9576 52.0213565,54.4616 49.1475742,51.3764571 L49.6308323,50.7067429 Z" id="Fill-9" fill="#111A4F"></path>
                        <polygon id="Fill-11" fill="#111A4F" points="52.3349589 55.0822857 52.981975 54.2017143 2.83765242 2.12457143 2.06237823 2.86685714"></polygon>
                        <path d="M10.4912806,12.5111429 C10.9327403,12.9688571 11.6627806,12.9825714 12.1231355,12.5431429 C12.5806274,12.1025714 12.5960871,11.3751429 12.1546274,10.9157143 L1.98387742,0.354571429 C1.54184516,-0.104857143 0.813522581,-0.119142857 0.354312903,0.320857143 C-0.105469355,0.762 -0.11921129,1.49 0.321675806,1.94885714 L10.4912806,12.5111429 Z" id="Fill-13" fill="#FFDE17"></path>
                        <path d="M67.5424718,54.8222286 C69.2579234,52.0102286 68.0532137,48.6708 65.7537298,47.4902286 C69.0655363,47.5742286 71.3484153,51.8165143 69.2458992,55.2628 C67.050625,58.9862286 62.0565766,60.5913714 58.1034798,59.2913714 C58.004996,59.2605143 57.9151008,59.2188 57.8200524,59.1850857 C61.4794153,59.7428 65.601996,58.1125143 67.5424718,54.8222286" id="Fill-15" fill="#FFFFFF"></path>
                    </g>
                </g>
            </g>
        </g>
    </g>
</svg>