<?xml version="1.0" encoding="UTF-8"?>
<svg width="17px" height="18px" viewBox="0 0 17 18" version="1.1" xmlns="http://www.w3.org/2000/svg" xmlns:xlink="http://www.w3.org/1999/xlink">
    <!-- Generator: Sketch 45.1 (43504) - http://www.bohemiancoding.com/sketch -->
    <title>People - simple-line-icons</title>
    <desc>Created with Sketch.</desc>
    <defs></defs>
    <g id="Page-1" stroke="none" stroke-width="1" fill="none" fill-rule="evenodd">
        <g id="01-homePage" transform="translate(-87.000000, -2523.000000)" fill="#818181">
            <g id="Group-3" transform="translate(69.000000, 2226.000000)">
                <g id="Around-1">
                    <path d="M30.3847656,310.924805 L30.8330078,311.173828 C31.1318374,311.339845 31.28125,311.555663 31.28125,311.821289 L31.28125,313.166016 C31.28125,313.420574 31.1927092,313.633625 31.015625,313.805176 C30.8385408,313.976726 30.6282564,314.0625 30.3847656,314.0625 L18.8964844,314.0625 C18.6529936,314.0625 18.4427092,313.976726 18.265625,313.805176 C18.0885408,313.633625 18,313.420574 18,313.166016 L18,311.821289 C18,311.577798 18.1494126,311.367514 18.4482422,311.19043 L18.8964844,310.924805 L22.3330078,309.06543 C21.7021453,308.56738 21.2649752,307.903324 21.0214844,307.073242 C20.7779936,306.24316 20.65625,305.584638 20.65625,305.097656 L20.65625,302.856445 C20.65625,302.480141 20.7724598,302.10661 21.0048828,301.73584 C21.2373058,301.36507 21.5416648,301.030275 21.9179688,300.731445 C22.2942727,300.432616 22.7231421,300.189129 23.2045898,300.000977 C23.6860376,299.812825 24.170245,299.71875 24.6572266,299.71875 C25.1552759,299.71875 25.6422502,299.812825 26.1181641,300.000977 C26.5940779,300.189129 27.0174135,300.432616 27.3881836,300.731445 C27.7589537,301.030275 28.0577788,301.36507 28.284668,301.73584 C28.5115571,302.10661 28.625,302.480141 28.625,302.856445 L28.625,305.097656 C28.625,305.639977 28.5170909,306.3151 28.3012695,307.123047 C28.0854481,307.930994 27.6676463,308.583982 27.0478516,309.082031 L30.3847656,310.924805 Z M30.21875,313 L30.21875,312.053711 C30.1855467,312.020508 30.1468101,311.992839 30.1025391,311.970703 L29.9697266,311.904297 C29.9586588,311.904297 29.9448243,311.898763 29.9282227,311.887695 C29.911621,311.876628 29.8922527,311.86556 29.8701172,311.854492 L26.5332031,310.011719 C26.3782544,309.923177 26.2509771,309.8042 26.1513672,309.654785 C26.0517573,309.50537 25.9964193,309.342123 25.9853516,309.165039 C25.963216,308.987955 25.9881181,308.816407 26.0600586,308.650391 C26.1319991,308.484374 26.2399081,308.346029 26.3837891,308.235352 C26.8375674,307.881183 27.1474601,307.374841 27.3134766,306.716309 C27.479493,306.057777 27.5625,305.518231 27.5625,305.097656 L27.5625,302.856445 C27.5625,302.469074 27.2719756,302.02637 26.690918,301.52832 C26.1098604,301.030271 25.43197,300.78125 24.6572266,300.78125 C23.9046186,300.78125 23.2267283,301.030271 22.6235352,301.52832 C22.020342,302.02637 21.71875,302.469074 21.71875,302.856445 L21.71875,305.097656 C21.71875,305.518231 21.8183584,306.057777 22.0175781,306.716309 C22.2167979,307.374841 22.543292,307.881183 22.9970703,308.235352 C23.1298835,308.346029 23.2322588,308.484374 23.3041992,308.650391 C23.3761397,308.816407 23.4010418,308.987955 23.3789062,309.165039 C23.3678385,309.342123 23.3125005,309.50537 23.2128906,309.654785 C23.1132808,309.8042 22.9860034,309.917643 22.8310547,309.995117 L19.3945312,311.871094 C19.3834635,311.871094 19.3723959,311.873861 19.3613281,311.879395 C19.3502604,311.884928 19.3391928,311.893229 19.328125,311.904297 C19.2838539,311.915365 19.2368167,311.9375 19.1870117,311.970703 L19.0625,312.053711 L19.0625,313 L30.21875,313 Z M34.1035156,308.285156 L34.5517578,308.53418 C34.8505874,308.700196 35,308.916014 35,309.181641 L35,310.509766 C35,310.764324 34.9114592,310.977375 34.734375,311.148926 C34.5572908,311.320476 34.3470064,311.40625 34.1035156,311.40625 L32.34375,311.40625 C32.2773434,311.173827 32.2081709,310.969076 32.1362305,310.791992 C32.06429,310.614908 31.9508471,310.465495 31.7958984,310.34375 L33.9375,310.34375 L33.9375,309.397461 C33.9042967,309.375325 33.8655601,309.350423 33.8212891,309.322754 C33.777018,309.295084 33.7327476,309.275716 33.6884766,309.264648 C33.6774088,309.253581 33.6635743,309.24528 33.6469727,309.239746 C33.630371,309.234212 33.6110027,309.225912 33.5888672,309.214844 L30.2021484,307.37207 C30.0471997,307.283528 29.9199224,307.164552 29.8203125,307.015137 C29.7207026,306.865722 29.6653646,306.702475 29.6542969,306.525391 C29.6321613,306.348306 29.6570634,306.176759 29.7290039,306.010742 C29.8009444,305.844726 29.9088534,305.706381 30.0527344,305.595703 C30.5065127,305.230467 30.8247061,304.718591 31.0073242,304.060059 C31.1899423,303.401527 31.28125,302.867515 31.28125,302.458008 L31.28125,300.216797 C31.28125,299.818357 30.9824249,299.37012 30.3847656,298.87207 C29.7871064,298.374021 29.1009153,298.125 28.3261719,298.125 C27.9498679,298.125 27.5874041,298.185872 27.2387695,298.307617 C26.890135,298.429363 26.5774753,298.595377 26.3007812,298.805664 C26.0904937,298.739257 25.8691418,298.700521 25.6367188,298.689453 C25.4042957,298.678385 25.17741,298.667318 24.9560547,298.65625 C25.3434264,298.202472 25.8414683,297.82064 26.4501953,297.510742 C27.0589223,297.200845 27.6842416,297.045898 28.3261719,297.045898 C28.8242212,297.045898 29.3139624,297.14274 29.7954102,297.336426 C30.2768579,297.530112 30.7057273,297.776366 31.0820312,298.075195 C31.4583352,298.374025 31.7626942,298.711587 31.9951172,299.087891 C32.2275402,299.464195 32.34375,299.840493 32.34375,300.216797 L32.34375,302.458008 C32.34375,302.98926 32.2275402,303.661617 31.9951172,304.475098 C31.7626942,305.288578 31.3365916,305.9388 30.7167969,306.425781 L34.1035156,308.285156 Z" id="People---simple-line-icons"></path>
                </g>
            </g>
        </g>
    </g>
</svg>