<?xml version="1.0" encoding="UTF-8"?>
<svg width="16px" height="20px" viewBox="0 0 16 20" version="1.1" xmlns="http://www.w3.org/2000/svg" xmlns:xlink="http://www.w3.org/1999/xlink">
    <!-- Generator: Sketch 45.1 (43504) - http://www.bohemiancoding.com/sketch -->
    <title>icon_location</title>
    <desc>Created with Sketch.</desc>
    <defs></defs>
    <g id="Page-1" stroke="none" stroke-width="1" fill="none" fill-rule="evenodd" stroke-linecap="round" stroke-linejoin="round">
        <g id="HomePage" transform="translate(-655.000000, -1855.000000)" stroke="#818181">
            <g id="Upcoming" transform="translate(0.000000, 1368.000000)">
                <g id="Group-9" transform="translate(70.000000, 114.000000)">
                    <g id="Group-5" transform="translate(586.000000, 374.000000)">
                        <g id="icon_location">
                            <path d="M14,7 C14,11.319875 7,18.375 7,18.375 C7,18.375 0,11.319875 0,7 C0,2.57075 3.61725,0 7,0 C10.38275,0 14,2.57075 14,7 L14,7 Z" id="Stroke-3111"></path>
                            <path d="M4.375,7 C4.375,5.550125 5.550125,4.375 7,4.375 C8.449875,4.375 9.625,5.550125 9.625,7 C9.625,8.449875 8.449875,9.625 7,9.625 C5.550125,9.625 4.375,8.449875 4.375,7 L4.375,7 Z" id="Stroke-3113"></path>
                        </g>
                    </g>
                </g>
            </g>
        </g>
    </g>
</svg>