<?xml version="1.0" encoding="UTF-8"?>
<svg width="20px" height="16px" viewBox="0 0 20 16" version="1.1" xmlns="http://www.w3.org/2000/svg" xmlns:xlink="http://www.w3.org/1999/xlink">
    <!-- Generator: Sketch 45.1 (43504) - http://www.bohemiancoding.com/sketch -->
    <title>Group 19</title>
    <desc>Created with Sketch.</desc>
    <defs></defs>
    <g id="Page-1" stroke="none" stroke-width="1" fill="none" fill-rule="evenodd">
        <g id="01-homePage" transform="translate(-1092.000000, -20.000000)">
            <g id="Group-19" transform="translate(1092.000000, 20.000000)">
                <path d="M19.1666667,0 L0.833333333,0 C0.373333333,0 0,0.377624521 0,0.842911877 L0,14.3295019 C0,14.7947893 0.373333333,15.1724138 0.833333333,15.1724138 L19.1666667,15.1724138 C19.6266667,15.1724138 20,14.7947893 20,14.3295019 L20,0.842911877 C20,0.377624521 19.6266667,0 19.1666667,0" id="Fill-1019" fill="#002781"></path>
                <path d="M20,0.842911877 C20,0.377624521 19.6266667,0 19.1666667,0 L17.01625,0 L11.6666667,4.16229885 L11.6666667,0 L8.33333333,0 L8.33333333,4.16229885 L2.98375,0 L0.833333333,0 C0.373333333,0 0,0.377624521 0,0.842911877 L0,1.93279693 L5.09958333,5.90038314 L0,5.90038314 L0,9.27203065 L5.09958333,9.27203065 L0,13.2400383 L0,14.3295019 C0,14.7947893 0.373333333,15.1724138 0.833333333,15.1724138 L2.98375,15.1724138 L8.33333333,11.0101149 L8.33333333,15.1724138 L11.6666667,15.1724138 L11.6666667,11.0101149 L17.01625,15.1724138 L19.1666667,15.1724138 C19.6266667,15.1724138 20,14.7947893 20,14.3295019 L20,13.2400383 L14.9004167,9.27203065 L20,9.27203065 L20,5.90038314 L14.9004167,5.90038314 L20,1.93279693 L20,0.842911877 Z" id="Fill-1020" fill="#E6E6E6"></path>
                <polygon id="Fill-1021" fill="#D10D24" points="20 6.74329502 10.8333333 6.74329502 10.8333333 0 9.16666667 0 9.16666667 6.74329502 0 6.74329502 0 8.42911877 9.16666667 8.42911877 9.16666667 15.1724138 10.8333333 15.1724138 10.8333333 8.42911877 20 8.42911877"></polygon>
                <path d="M19.58375,0.129386973 L12.1666667,5.90038314 L13.5333333,5.90038314 L20,0.869042146 L20,0.842911877 C20,0.53440613 19.8279167,0.276475096 19.58375,0.129386973" id="Fill-1022" fill="#D10D24"></path>
                <path d="M13.5333333,9.27203065 L12.1666667,9.27203065 L19.58375,15.0430268 C19.8279167,14.8959387 20,14.6380077 20,14.3295019 L20,14.3033716 L13.5333333,9.27203065 Z" id="Fill-1023" fill="#D10D24"></path>
                <path d="M6.46666667,9.27203065 L0,14.3033716 L0,14.3295019 C0,14.6380077 0.172083333,14.8959387 0.41625,15.0430268 L7.83333333,9.27203065 L6.46666667,9.27203065 Z" id="Fill-1024" fill="#D10D24"></path>
                <path d="M6.46666667,5.90038314 L7.83333333,5.90038314 L0.41625,0.129386973 C0.172083333,0.276475096 0,0.53440613 0,0.842911877 L0,0.869042146 L6.46666667,5.90038314 Z" id="Fill-1025" fill="#D10D24"></path>
            </g>
        </g>
    </g>
</svg>