<?xml version="1.0" encoding="UTF-8"?>
<svg width="20px" height="15px" viewBox="0 0 20 15" version="1.1" xmlns="http://www.w3.org/2000/svg" xmlns:xlink="http://www.w3.org/1999/xlink">
    <!-- Generator: Sketch 45.1 (43504) - http://www.bohemiancoding.com/sketch -->
    <title>Group 20</title>
    <desc>Created with Sketch.</desc>
    <defs></defs>
    <g id="Page-1" stroke="none" stroke-width="1" fill="none" fill-rule="evenodd">
        <g id="01-homePage" transform="translate(-1122.000000, -20.000000)">
            <g id="Group-20" transform="translate(1122.000000, 20.000000)">
                <path d="M20,14.1666667 C20,14.6270833 19.6270833,15 19.1666667,15 L0.833333333,15 C0.372916667,15 0,14.6270833 0,14.1666667 L0,0.833333333 C0,0.372916667 0.372916667,0 0.833333333,0 L19.1666667,0 C19.6270833,0 20,0.372916667 20,0.833333333 L20,14.1666667 Z" id="Fill-385" fill="#D82827"></path>
                <polygon id="Fill-386" fill="#FFFD38" points="13.48375 6.26708333 11.0291667 6.26708333 10 4.035 8.96958333 6.26708333 6.51583333 6.26708333 8.30875 8.1225 7.64625 10.81125 10 9.47416667 12.3533333 10.81125 11.6908333 8.1225"></polygon>
            </g>
        </g>
    </g>
</svg>