<?xml version="1.0" encoding="UTF-8"?>
<svg width="68px" height="93px" viewBox="0 0 68 93" version="1.1" xmlns="http://www.w3.org/2000/svg" xmlns:xlink="http://www.w3.org/1999/xlink">
    <!-- Generator: Sketch 45.1 (43504) - http://www.bohemiancoding.com/sketch -->
    <title>Badge</title>
    <desc>Created with Sketch.</desc>
    <defs>
        <path d="M67.5725714,70.0234103 C67.5725714,72.6663763 65.6612857,75.9472997 63.3845,77.2232143 L37.9743571,91.7151742 C35.6975714,92.992304 31.875,92.992304 29.5982143,91.7151742 L4.18807143,77.2232143 C1.91128571,75.9472997 0,72.6663763 0,70.0234103 L0,4.83146341 C0,2.18728223 2.18692857,0 4.828,0 L62.6583571,0 C65.2957857,0.00486062718 67.5725714,2.18728223 67.5725714,4.83146341 L67.5725714,70.0234103 Z" id="path-1"></path>
    </defs>
    <g id="Page-1" stroke="none" stroke-width="1" fill="none" fill-rule="evenodd">
        <g id="09-profileSettings-myCharityEvent" transform="translate(-1142.000000, -180.000000)">
            <g id="Group-11" transform="translate(69.000000, 180.000000)">
                <g id="Badge" transform="translate(1073.000000, 0.000000)">
                    <g id="Page-1">
                        <use fill="#F8E71C" fill-rule="evenodd" xlink:href="#path-1"></use>
                        <path stroke="#C4B616" stroke-width="3" d="M66.0725714,70.0234103 L66.0725714,4.83146341 C66.0725714,3.04289133 64.4941903,1.50338588 62.6583571,1.5 L4.828,1.5 C3.01512048,1.5 1.5,3.01594491 1.5,4.83146341 L1.5,70.0234103 C1.5,72.1236438 3.11813581,74.9041402 4.93119251,75.9202288 L30.3320508,90.4069372 C32.1530193,91.428383 35.4195521,91.428383 37.2312361,90.4121888 L62.6511948,75.9146794 C64.4544356,74.9041402 66.0725714,72.1236438 66.0725714,70.0234103 Z"></path>
                    </g>
                    <text id="7.8" font-family="IstokWeb-Bold, Istok Web" font-size="22" font-weight="bold" fill="#C4B616">
                        <tspan x="17.9941406" y="51.5490291">7.8</tspan>
                    </text>
                    <text id="HDCP" font-family="IstokWeb-Bold, Istok Web" font-size="14" font-weight="bold" line-spacing="25" fill="#C4B616">
                        <tspan x="14.7294922" y="71.6071001">HDCP</tspan>
                    </text>
                    <path d="M38.7677714,27.1944314 C38.6150629,27.1944314 38.4600229,27.1582683 38.3213029,27.0853589 L33.7219771,24.6653498 L29.1232343,27.0853589 C28.7997486,27.2556753 28.4080686,27.2288446 28.1102286,27.0124495 C27.8141371,26.7954711 27.6660914,26.430924 27.7272914,26.0710432 L28.60624,20.94697 L24.8858629,17.3172481 C24.62416,17.0623568 24.5285714,16.6797282 24.6422286,16.3309296 C24.7541371,15.982131 25.05664,15.7295728 25.4185943,15.677078 L30.5623086,14.9299024 L32.86168,10.2660334 C33.0231314,9.93764948 33.3576914,9.73058676 33.7243086,9.73058676 C34.0909257,9.73058676 34.4254857,9.93764948 34.58752,10.2660334 L36.8868914,14.9299024 L42.0300229,15.677078 C42.3919771,15.7295728 42.6927314,15.982131 42.8063886,16.3309296 C42.9206286,16.6797282 42.82504,17.0623568 42.5627543,17.3172481 L38.84296,20.94697 L39.7213257,26.0710432 C39.7831086,26.4332571 39.6350629,26.7978042 39.3389714,27.0124495 C39.1635314,27.1331875 38.9659429,27.1944314 38.7677714,27.1944314 L38.7677714,27.1944314 Z M33.7202286,22.614554 C33.5651886,22.614554 33.41248,22.6513003 33.2667657,22.7242098 L29.9450629,24.4717024 L30.5803771,20.7714042 C30.6328343,20.4593519 30.5302514,20.1403003 30.3023543,19.919239 L27.6159657,17.2968334 L31.3293486,16.7567206 C31.6435086,16.7112251 31.9145371,16.5152446 32.0532571,16.2306063 L33.7155657,12.8633582 L35.3772914,16.2306063 C35.5183429,16.5152446 35.7893714,16.7112251 36.1012,16.7567206 L39.8151657,17.2968334 L37.1281943,19.919239 C36.9026286,20.1403003 36.8006286,20.4593519 36.8530857,20.7714042 L37.4878171,24.4717024 L34.1661143,22.7242098 C34.0273943,22.6513003 33.8746857,22.614554 33.7202286,22.614554 Z M24.7244114,14.8429944 L13.1902514,14.8429944 C12.6598514,14.8429944 12.22912,14.4125373 12.22912,13.8817568 C12.22912,13.3509763 12.6598514,12.9199359 13.1902514,12.9199359 L24.7244114,12.9199359 C25.2548114,12.9199359 25.68496,13.3509763 25.68496,13.8817568 C25.68496,14.4148704 25.2571429,14.8429944 24.7244114,14.8429944 Z M22.48624,18.4837986 L17.1449371,18.4837986 C16.6145371,18.4837986 16.1843886,18.0533415 16.1843886,17.522561 C16.1843886,16.9917805 16.6145371,16.5613233 17.1449371,16.5613233 L22.48624,16.5613233 C23.01664,16.5613233 23.4473714,16.9917805 23.4473714,17.522561 C23.4473714,18.0533415 23.01664,18.4837986 22.48624,18.4837986 Z M24.5740343,21.7717213 L21.5507543,21.7717213 C21.0197714,21.7717213 20.5896229,21.3412641 20.5896229,20.8104836 C20.5896229,20.2797031 21.0197714,19.8486627 21.5507543,19.8486627 L24.5740343,19.8486627 C25.1044343,19.8486627 25.5351657,20.2797031 25.5351657,20.8104836 C25.5369143,21.3412641 25.1044343,21.7717213 24.5740343,21.7717213 Z M54.5801029,14.8429944 L43.0459429,14.8429944 C42.51496,14.8429944 42.0848114,14.4125373 42.0848114,13.8817568 C42.0848114,13.3509763 42.51496,12.9199359 43.0459429,12.9199359 L54.5801029,12.9199359 C55.1105029,12.9199359 55.5406514,13.3509763 55.5406514,13.8817568 C55.5406514,14.4148704 55.1105029,14.8429944 54.5801029,14.8429944 Z M50.6248343,18.4837986 L45.2835314,18.4837986 C44.7531314,18.4837986 44.3229829,18.0533415 44.3229829,17.522561 C44.3229829,16.9917805 44.7531314,16.5613233 45.2835314,16.5613233 L50.6248343,16.5613233 C51.1558171,16.5613233 51.5859657,16.9917805 51.5859657,17.522561 C51.5882971,18.0533415 51.1558171,18.4837986 50.6248343,18.4837986 Z M46.2196,21.7717213 L43.1957371,21.7717213 C42.6653371,21.7717213 42.2351886,21.3412641 42.2351886,20.8104836 C42.2351886,20.2797031 42.6653371,19.8486627 43.1957371,19.8486627 L46.2196,19.8486627 C46.7523314,19.8486627 47.1801486,20.2797031 47.1801486,20.8104836 C47.18248,21.3412641 46.7523314,21.7717213 46.2196,21.7717213 Z" id="Combined-Shape" fill="#C4B616"></path>
                </g>
            </g>
        </g>
    </g>
</svg>