<?xml version="1.0" encoding="UTF-8"?>
<svg width="22px" height="22px" viewBox="0 0 22 22" version="1.1" xmlns="http://www.w3.org/2000/svg" xmlns:xlink="http://www.w3.org/1999/xlink">
    <!-- Generator: Sketch 45.1 (43504) - http://www.bohemiancoding.com/sketch -->
    <title>Group 3</title>
    <desc>Created with Sketch.</desc>
    <defs></defs>
    <g id="Page-1" stroke="none" stroke-width="1" fill="none" fill-rule="evenodd">
        <g id="06-member" transform="translate(-460.000000, -561.000000)">
            <g id="Group-8" transform="translate(392.000000, 176.000000)">
                <g id="Group-4" transform="translate(52.000000, 373.000000)">
                    <g id="Group-3" transform="translate(27.000000, 23.000000) scale(-1, 1) rotate(-180.000000) translate(-27.000000, -23.000000) translate(16.000000, 12.000000)">
                        <path d="M10.5,16 L6.5,16 C6.2235,16 6,15.776 6,15.5 L6,11.5 C6,11.3675 6.0525,11.24 6.1465,11.1465 L17.1465,0.1465 C17.24,0.0525 17.367,0 17.5,0 L21.5,0 C21.7765,0 22,0.224 22,0.5 L22,4.5 C22,4.6325 21.9475,4.76 21.8535,4.8535 L20.3535,6.3535 C20.26,6.4475 20.133,6.5 20,6.5 L17.5,6.5 L17.5,9 C17.5,9.276 17.2765,9.5 17,9.5 L14.5,9.5 L14.5,12 C14.5,12.1325 14.4475,12.26 14.3535,12.3535 L10.8535,15.8535 C10.76,15.9475 10.633,16 10.5,16" id="Fill-33" fill="#D6D6D6"></path>
                        <path d="M11.5,9 C11.372,9 11.244,8.951 11.1465,8.8535 C10.951,8.658 10.951,8.342 11.1465,8.1465 L17.6465,1.6465 C17.842,1.451 18.158,1.451 18.3535,1.6465 C18.549,1.842 18.549,2.158 18.3535,2.3535 L11.8535,8.8535 C11.756,8.951 11.628,9 11.5,9" id="Fill-34" fill="#B3B3B3"></path>
                        <path d="M5,18.5 C4.1715,18.5 3.5,17.8285 3.5,17 C3.5,16.1715 4.1715,15.5 5,15.5 C5.8285,15.5 6.5,16.1715 6.5,17 C6.5,17.8285 5.8285,18.5 5,18.5 M6.5,9 C2.916,9 0,11.916 0,15.5 C0,19.084 2.916,22 6.5,22 C10.084,22 13,19.084 13,15.5 C13,11.916 10.084,9 6.5,9" id="Fill-35" fill="#B3B3B3"></path>
                    </g>
                </g>
            </g>
        </g>
    </g>
</svg>