<?xml version="1.0" encoding="UTF-8"?>
<svg width="22px" height="24px" viewBox="0 0 22 24" version="1.1" xmlns="http://www.w3.org/2000/svg" xmlns:xlink="http://www.w3.org/1999/xlink">
    <!-- Generator: Sketch 45.1 (43504) - http://www.bohemiancoding.com/sketch -->
    <title>Group 7</title>
    <desc>Created with Sketch.</desc>
    <defs></defs>
    <g id="Page-1" stroke="none" stroke-width="1" fill="none" fill-rule="evenodd" stroke-linecap="round" stroke-linejoin="round">
        <g id="HomePage" transform="translate(-388.000000, -778.000000)" stroke="#444444">
            <g id="Shop" transform="translate(69.000000, 420.000000)">
                <g id="Group-10" transform="translate(0.000000, 50.000000)">
                    <g id="Group-9-Copy">
                        <g id="Group-7" transform="translate(319.000000, 309.000000)">
                            <path d="M4,20 C4,18.895 4.895,18 6,18 C7.105,18 8,18.895 8,20 C8,21.105 7.105,22 6,22 C4.895,22 4,21.105 4,20 L4,20 Z" id="Stroke-4383"></path>
                            <path d="M18,18 C19.105,18 20,18.895 20,20 C20,21.105 19.105,22 18,22 C16.895,22 16,21.105 16,20 C16,18.895 16.895,18 18,18 Z" id="Stroke-4384"></path>
                            <polyline id="Stroke-4385" points="8 3 21 3 19 15 5 15 2 0 0 0"></polyline>
                        </g>
                    </g>
                </g>
            </g>
        </g>
    </g>
</svg>