<?xml version="1.0" encoding="utf-8"?>
<!-- Generator: Adobe Illustrator 21.1.0, SVG Export Plug-In . SVG Version: 6.00 Build 0)  -->
<svg version="1.1" id="Layer_1" xmlns="http://www.w3.org/2000/svg" xmlns:xlink="http://www.w3.org/1999/xlink" x="0px" y="0px"
	 viewBox="0 0 800 1000" style="enable-background:new 0 0 800 1000;" xml:space="preserve">
<style type="text/css">
	.st0{fill:#73BF44;}
	.st1{fill:none;stroke:#464646;stroke-width:3;stroke-linecap:round;stroke-linejoin:round;stroke-miterlimit:10;}
</style>
<g id="Page-1">
	<g id="HomePage" transform="translate(-349.000000, -780.000000)">
		<g id="Shop" transform="translate(69.000000, 420.000000)">
			<g id="Group-10" transform="translate(0.000000, 50.000000)">
				<path id="Stroke-572-Copy" class="st0" d="M504.3,387.6C487,362.4,458.5,345,425.4,345c-52.1,0-94.7,42.6-94.7,94.7
					c0,94.7,173.6,236.8,173.6,236.8S678,534.4,678,439.7c0-52.1-42.6-94.7-94.7-94.7C550.1,345,521.7,362.4,504.3,387.6z"/>
			</g>
		</g>
	</g>
</g>
<circle class="st1" cx="137.5" cy="812.4" r="31.6"/>
<circle class="st1" cx="327.2" cy="812.4" r="31.6"/>
<polyline class="st1" points="169.1,544.1 374.3,544.1 342.7,733.5 121.7,733.5 74.4,496.7 42.8,496.7 "/>
</svg>
